HIERARCHY
ROOT Hips
{
	OFFSET 0.000000 89.005402 0.000000
	CHANNELS 6 Xposition Yposition Zposition Xrotation Yrotation Zrotation
	JOINT Spine
	{
		OFFSET 0.116900 10.681000 0.373400
		CHANNELS 3 Xrotation Yrotation Zrotation
		JOINT Spine1
		{
			OFFSET 0.000000 13.840401 0.053500
			CHANNELS 3 Xrotation Yrotation Zrotation
			JOINT Spine2
			{
				OFFSET 0.000000 14.712700 -0.366200
				CHANNELS 3 Xrotation Yrotation Zrotation
				JOINT Neck
				{
					OFFSET 0.000000 35.415497 -3.314200
					CHANNELS 3 Xrotation Yrotation Zrotation
					JOINT Head
					{
						OFFSET 0.000000 16.899200 1.218300
						CHANNELS 3 Xrotation Yrotation Zrotation
						JOINT HeadTop_End
						{
							OFFSET 0.000000 22.206207 2.192500
							CHANNELS 3 Xrotation Yrotation Zrotation
							End Site
							{
								OFFSET 0.000000 22.314178 0.000000
							}
						}
					}
				}
				JOINT LeftShoulder
				{
					OFFSET 12.896400 26.716293 -4.548400
					CHANNELS 3 Xrotation Yrotation Zrotation
					JOINT LeftArm
					{
						OFFSET 19.027000 -4.857010 -1.718400
						CHANNELS 3 Xrotation Yrotation Zrotation
						JOINT LeftForeArm
						{
							OFFSET 24.179897 0.000000 0.000000
							CHANNELS 3 Xrotation Yrotation Zrotation
							JOINT LeftHand
							{
								OFFSET 27.156403 0.000000 0.000000
								CHANNELS 3 Xrotation Yrotation Zrotation
								JOINT LeftHandIndex1
								{
									OFFSET 16.441200 0.000000 0.000000
									CHANNELS 3 Xrotation Yrotation Zrotation
									JOINT LeftHandIndex2
									{
										OFFSET 4.821899 0.000000 0.000000
										CHANNELS 3 Xrotation Yrotation Zrotation
										JOINT LeftHandIndex3
										{
											OFFSET 6.386497 0.000000 0.000000
											CHANNELS 3 Xrotation Yrotation Zrotation
											JOINT LeftHandIndex4
											{
												OFFSET 5.188988 0.000000 0.000000
												CHANNELS 3 Xrotation Yrotation Zrotation
												End Site
												{
													OFFSET -0.178703 5.185913 0.000177
												}
											}
										}
									}
								}
								JOINT LeftHandThumb1
								{
									OFFSET 6.534897 -5.032593 5.900300
									CHANNELS 3 Xrotation Yrotation Zrotation
									JOINT LeftHandThumb2
									{
										OFFSET 3.818176 -2.204422 2.204423
										CHANNELS 3 Xrotation Yrotation Zrotation
										JOINT LeftHandThumb3
										{
											OFFSET 3.252098 -1.877594 1.877601
											CHANNELS 3 Xrotation Yrotation Zrotation
											JOINT LeftHandThumb4
											{
												OFFSET 5.251778 -3.032120 3.032117
												CHANNELS 3 Xrotation Yrotation Zrotation
												End Site
												{
													OFFSET 0.000023 6.780014 0.000000
												}
											}
										}
									}
								}
							}
						}
					}
				}
				JOINT RightShoulder
				{
					OFFSET -12.896300 26.716293 -4.548400
					CHANNELS 3 Xrotation Yrotation Zrotation
					JOINT RightArm
					{
						OFFSET -19.027000 -4.857010 -1.718400
						CHANNELS 3 Xrotation Yrotation Zrotation
						JOINT RightForeArm
						{
							OFFSET -24.179897 0.000000 0.000000
							CHANNELS 3 Xrotation Yrotation Zrotation
							JOINT RightHand
							{
								OFFSET -27.156403 0.000000 0.000000
								CHANNELS 3 Xrotation Yrotation Zrotation
								JOINT RightHandThumb1
								{
									OFFSET -6.591202 -4.852203 5.988100
									CHANNELS 3 Xrotation Yrotation Zrotation
									JOINT RightHandThumb2
									{
										OFFSET -3.818176 -2.204422 2.204423
										CHANNELS 3 Xrotation Yrotation Zrotation
										JOINT RightHandThumb3
										{
											OFFSET -3.252098 -1.877594 1.877601
											CHANNELS 3 Xrotation Yrotation Zrotation
											JOINT RightHandThumb4
											{
												OFFSET -5.251778 -3.032120 3.032117
												CHANNELS 3 Xrotation Yrotation Zrotation
												End Site
												{
													OFFSET -0.000023 6.780014 0.000000
												}
											}
										}
									}
								}
								JOINT RightHandIndex1
								{
									OFFSET -16.029404 0.000000 0.000000
									CHANNELS 3 Xrotation Yrotation Zrotation
									JOINT RightHandIndex2
									{
										OFFSET -5.213303 0.000000 0.000000
										CHANNELS 3 Xrotation Yrotation Zrotation
										JOINT RightHandIndex3
										{
											OFFSET -6.386528 0.000000 0.000000
											CHANNELS 3 Xrotation Yrotation Zrotation
											JOINT RightHandIndex4
											{
												OFFSET -5.189026 0.000000 0.000000
												CHANNELS 3 Xrotation Yrotation Zrotation
												End Site
												{
													OFFSET 0.236702 5.183624 0.001972
												}
											}
										}
									}
								}
							}
						}
					}
				}
			}
		}
	}
	JOINT LeftUpLeg
	{
		OFFSET 14.073000 -7.904099 -1.463000
		CHANNELS 3 Xrotation Yrotation Zrotation
		JOINT LeftLeg
		{
			OFFSET -0.109806 -34.073280 4.093200
			CHANNELS 3 Xrotation Yrotation Zrotation
			JOINT LeftFoot
			{
				OFFSET 0.109806 -29.899420 -6.319000
				CHANNELS 3 Xrotation Yrotation Zrotation
				JOINT LeftToeBase
				{
					OFFSET 1.551100 -14.988700 20.535801
					CHANNELS 3 Xrotation Yrotation Zrotation
					JOINT LeftToe_End
					{
						OFFSET 0.221200 0.570800 13.248301
						CHANNELS 3 Xrotation Yrotation Zrotation
						End Site
						{
							OFFSET 0.000000 13.262435 0.000000
						}
					}
				}
			}
		}
	}
	JOINT RightUpLeg
	{
		OFFSET -13.839300 -7.904099 -1.463000
		CHANNELS 3 Xrotation Yrotation Zrotation
		JOINT RightLeg
		{
			OFFSET 0.109694 -34.073219 4.093300
			CHANNELS 3 Xrotation Yrotation Zrotation
			JOINT RightFoot
			{
				OFFSET -0.109694 -29.899384 -6.319200
				CHANNELS 3 Xrotation Yrotation Zrotation
				JOINT RightToeBase
				{
					OFFSET -1.551100 -14.988700 20.535801
					CHANNELS 3 Xrotation Yrotation Zrotation
					JOINT RightToe_End
					{
						OFFSET -0.221200 0.570900 13.248299
						CHANNELS 3 Xrotation Yrotation Zrotation
						End Site
						{
							OFFSET 0.000000 13.262440 0.000000
						}
					}
				}
			}
		}
	}
}
MOTION
Frames: 7
Frame Time: 0.033333
-1.068484 67.298523 6.158236 21.970524 -42.195109 6.183243 24.718747 8.144305 -6.340266 6.669405 -1.647658 -9.548761 9.080288 -4.907588 -3.068725 -17.968788 9.691596 3.405471 -23.477816 20.285843 21.783181 0.000001 0.000000 -0.000001 -35.639763 -11.283664 9.590786 -85.637779 -26.582574 -62.315900 0.000010 -36.317403 0.000022 -118.803846 13.567437 23.711569 -1.882828 2.129406 -39.817004 2.947097 5.081735 -60.200529 0.514380 2.402400 -24.167388 -0.000004 0.000001 0.000002 1.567995 0.456391 2.719342 19.473182 -1.474900 7.636916 -4.536181 -9.613116 1.492977 -0.000001 -0.000001 0.000001 -49.121300 12.547122 19.158175 -34.577423 37.411060 74.080532 0.000189 108.957152 -0.000187 -32.519654 -28.574387 -35.142440 8.377131 -4.904161 11.022010 21.620192 -18.183907 -18.379214 -0.702879 -49.821200 -32.535138 -0.000002 -0.000001 -0.000001 -1.101403 1.407129 15.159506 1.422349 -3.352179 45.974085 0.615851 -2.316439 29.773109 0.000000 0.000000 0.000000 -79.372030 -11.670680 23.664083 80.508007 -9.220933 4.943916 -7.461708 0.501592 -5.897170 -3.478707 0.042044 -1.877497 -0.000000 0.000002 0.000000 -54.870748 -26.188689 4.881518 69.731669 -8.464999 1.260259 -34.485762 -17.666397 -8.818790 -2.444919 -0.000010 0.000005 0.000000 -0.000000 -0.000000 
-0.591451 67.132866 6.283100 21.480598 -41.964996 5.939095 25.038613 7.929477 -6.231194 6.695660 -1.647657 -9.499752 9.144228 -4.882963 -3.069600 -17.959060 9.637383 3.444969 -23.456567 20.301399 21.561890 -0.000003 0.000000 0.000001 -35.554888 -11.531414 9.928287 -85.658912 -26.207779 -62.172692 0.000043 -36.160032 0.000031 -118.658035 13.850821 23.288462 -1.882828 2.129402 -39.817008 2.947096 5.081735 -60.200529 0.514375 2.402401 -24.167388 0.000002 -0.000002 0.000002 1.567995 0.456388 2.719341 19.473180 -1.474898 7.636912 -4.536183 -9.613110 1.492977 0.000001 0.000000 -0.000001 -49.007734 12.391879 18.821893 -34.696791 37.674343 74.287227 0.000141 108.571464 -0.000142 -32.180822 -27.816553 -35.192478 8.377130 -4.904162 11.022010 21.620194 -18.183907 -18.379218 -0.702875 -49.821206 -32.535138 -0.000002 0.000000 -0.000001 -1.101403 1.407129 15.159508 1.422349 -3.352179 45.974082 0.615851 -2.316439 29.773109 -0.000000 -0.000000 0.000000 -78.761063 -11.412035 26.231975 77.631998 -8.951477 5.540652 -8.372918 -3.414415 -3.795466 -0.730823 0.054671 -2.141579 0.000000 0.000003 -0.000001 -55.483792 -25.647717 4.288721 70.441476 -8.404970 1.166744 -34.274835 -18.363647 -8.415706 -2.538306 -0.000002 0.000001 -0.000000 0.000000 0.000000 
0.280455 66.757263 6.631393 20.531465 -41.544431 5.470925 25.625975 7.545524 -6.014794 6.738934 -1.638188 -9.395201 9.258543 -4.834440 -3.068606 -17.926402 9.544359 3.494879 -23.432917 20.301259 21.180657 -0.000001 0.000001 -0.000001 -35.405467 -11.973567 10.495233 -85.643298 -25.576929 -62.032966 0.000006 -35.906766 -0.000004 -118.495039 14.114619 22.611555 -1.882827 2.129403 -39.817004 2.947096 5.081732 -60.200536 0.514376 2.402400 -24.167386 -0.000004 -0.000002 0.000001 1.567995 0.456388 2.719341 19.473182 -1.474901 7.636912 -4.536183 -9.613113 1.492976 0.000000 0.000000 0.000000 -48.793908 12.087684 18.178654 -34.837161 37.925336 74.474334 -0.000050 108.088980 0.000051 -31.856545 -26.811588 -35.209796 8.377130 -4.904162 11.022010 21.620195 -18.183908 -18.379218 -0.702873 -49.821213 -32.535138 -0.000001 0.000001 0.000000 -1.101403 1.407129 15.159509 1.422349 -3.352180 45.974085 0.615851 -2.316440 29.773112 -0.000000 -0.000000 0.000000 -78.054452 -10.390420 28.999935 72.476920 -5.681707 5.625632 -8.756686 -10.031063 1.338707 2.551531 0.143582 -3.462898 0.000000 0.000002 -0.000002 -56.547348 -24.492628 3.138734 71.954732 -8.316583 1.022352 -34.034867 -19.670494 -7.481062 -2.698696 0.000024 0.000008 0.000000 -0.000000 -0.000000 
1.708039 66.042877 7.369261 19.111148 -40.963885 4.718530 26.474517 7.065632 -5.635108 6.795835 -1.622591 -9.224149 9.417207 -4.760656 -3.057416 -17.858798 9.421567 3.533800 -23.422691 20.265216 20.668238 -0.000003 0.000000 0.000000 -35.203522 -12.578885 11.212071 -85.522486 -24.713955 -61.926579 -0.000009 -35.664512 -0.000009 -118.304095 14.312696 21.697797 -1.882827 2.129402 -39.817008 2.947096 5.081739 -60.200529 0.514373 2.402399 -24.167390 -0.000003 -0.000002 0.000001 1.567995 0.456384 2.719341 19.473180 -1.474906 7.636916 -4.536181 -9.613110 1.492977 -0.000002 -0.000002 -0.000001 -48.489900 11.628966 17.224335 -34.872303 38.166930 74.575434 0.000008 107.559388 -0.000007 -31.539041 -25.531307 -35.185795 8.377130 -4.904162 11.022010 21.620195 -18.183907 -18.379216 -0.702872 -49.821200 -32.535138 -0.000001 -0.000001 -0.000001 -1.101403 1.407129 15.159508 1.422349 -3.352179 45.974085 0.615852 -2.316439 29.773109 0.000000 0.000000 -0.000000 -77.114332 -10.368092 31.357986 67.702249 -3.926323 4.206845 -6.655256 -14.125853 1.434394 4.416842 0.305592 -5.054181 -0.000001 0.000001 -0.000000 -58.133823 -22.528913 1.253123 74.549691 -8.092780 0.881978 -33.670019 -21.588078 -5.746626 -2.924983 0.000034 0.000008 0.000000 0.000000 0.000000 
3.746918 64.988388 8.683620 17.473222 -40.361541 3.748620 27.425901 6.663609 -5.103694 6.849449 -1.602462 -9.003931 9.594759 -4.667200 -3.026582 -17.748808 9.292104 3.534342 -23.446317 20.175679 20.110932 -0.000001 -0.000000 -0.000003 -34.991551 -13.238272 11.892911 -85.211719 -23.699037 -61.824004 -0.000010 -35.542242 -0.000005 -118.085952 14.450529 20.651562 -1.882827 2.129407 -39.817004 2.947091 5.081736 -60.200529 0.514372 2.402399 -24.167383 -0.000003 0.000001 -0.000001 1.567995 0.456391 2.719341 19.473178 -1.474901 7.636913 -4.536181 -9.613110 1.492978 -0.000001 0.000002 -0.000001 -48.141233 11.059689 16.058246 -34.765434 38.483256 74.630588 -0.000039 106.949356 0.000051 -31.214764 -24.025375 -35.119197 8.377130 -4.904161 11.022010 21.620192 -18.183907 -18.379219 -0.702873 -49.821206 -32.535135 -0.000000 -0.000001 0.000000 -1.101403 1.407129 15.159509 1.422350 -3.352180 45.974082 0.615851 -2.316439 29.773112 0.000000 0.000000 -0.000000 -74.775176 -12.118811 33.138862 65.760330 -3.158753 2.956618 -5.349781 -14.005252 -9.993939 4.594181 0.146667 -3.541794 -0.000001 -0.000002 0.000000 -60.021592 -19.715373 -1.433279 77.997065 -7.450719 0.868484 -32.963268 -23.787689 -3.080089 -3.191049 0.000024 0.000003 0.000000 0.000000 0.000000 
6.235700 63.710823 10.534254 15.877601 -39.842785 2.692657 28.332378 6.433479 -4.498083 6.883211 -1.579950 -8.757816 9.759785 -4.562741 -2.970575 -17.597327 9.178693 3.482151 -23.515819 20.031031 19.600558 0.000001 -0.000000 0.000002 -34.823463 -13.826792 12.341366 -84.734794 -22.657588 -61.698922 -0.000022 -35.561622 -0.000004 -117.837279 14.572381 19.614802 -1.882828 2.129411 -39.817008 2.947095 5.081738 -60.200529 0.514381 2.402401 -24.167388 -0.000000 -0.000000 -0.000001 1.567995 0.456387 2.719342 19.473184 -1.474905 7.636916 -4.536182 -9.613111 1.492979 -0.000001 -0.000002 -0.000000 -47.798111 10.450200 14.829382 -34.613725 38.949669 74.747657 -0.000047 106.211443 0.000051 -30.880337 -22.438647 -35.010307 8.377130 -4.904162 11.022012 21.620195 -18.183907 -18.379214 -0.702877 -49.821206 -32.535138 -0.000001 -0.000000 -0.000001 -1.101404 1.407130 15.159508 1.422349 -3.352178 45.974082 0.615851 -2.316439 29.773112 0.000000 0.000000 -0.000000 -69.890860 -14.870449 35.063893 65.460499 2.199901 1.458879 -6.371873 -14.321607 -25.241410 1.842805 0.000001 -0.000003 0.000000 0.000001 0.000000 -61.737547 -16.137423 -4.698714 81.597716 -6.301452 1.060563 -31.721120 -25.840149 0.439397 -3.468268 -0.000003 0.000007 0.000000 -0.000001 0.000000 
8.473433 62.481277 12.364664 14.366616 -39.346691 1.741941 29.195971 6.211479 -3.966941 6.891829 -1.555661 -8.492823 9.898945 -4.450872 -2.889583 -17.409590 9.085190 3.388824 -23.624354 19.849419 19.161071 -0.000003 -0.000000 -0.000000 -34.724067 -14.299120 12.487987 -84.216376 -21.671944 -61.579374 -0.000020 -35.704086 -0.000016 -117.541928 14.680015 18.697257 -1.882827 2.129405 -39.817008 2.947093 5.081735 -60.200529 0.514377 2.402400 -24.167390 -0.000002 -0.000001 -0.000001 1.567995 0.456389 2.719341 19.473182 -1.474900 7.636914 -4.536180 -9.613110 1.492975 0.000001 -0.000000 -0.000000 -47.479503 9.838576 13.623669 -34.535537 39.527456 74.972138 0.000070 105.398514 -0.000054 -30.558874 -20.941222 -34.843520 8.377129 -4.904161 11.022010 21.620194 -18.183908 -18.379216 -0.702878 -49.821210 -32.535138 -0.000000 -0.000001 -0.000001 -1.101403 1.407129 15.159508 1.422350 -3.352180 45.974085 0.615851 -2.316439 29.773112 -0.000000 -0.000000 -0.000000 -71.408439 -16.409359 33.715429 71.354173 5.755607 -0.054990 -8.296236 -17.525521 -25.166264 0.589411 0.000007 0.000004 0.000000 0.000000 0.000000 -62.586956 -12.338087 -7.673641 84.548344 -5.321169 1.341133 -30.242404 -27.404421 4.349627 -3.723779 -0.000037 0.000006 0.000000 0.000000 0.000000 
